<svg xmlns="http://www.w3.org/2000/svg" xmlns:xlink="http://www.w3.org/1999/xlink" version="1.1" width="1000" height="1000" viewBox="0 0 1000 1000" xml:space="preserve">
<desc>Created with Fabric.js 3.5.0</desc>
<defs>
</defs>
<rect x="0" y="0" width="100%" height="100%" fill="#ffffff"/>
<g transform="matrix(6.2499 3.0835 -3.0835 6.2499 622.0142 510.8109)" id="529456">
<path style="stroke: none; stroke-width: 1; stroke-dasharray: none; stroke-linecap: butt; stroke-dashoffset: 0; stroke-linejoin: miter; stroke-miterlimit: 4; is-custom-font: none; font-file-url: none; fill: rgb(0,0,0); fill-rule: nonzero; opacity: 1;" vector-effect="non-scaling-stroke" transform=" translate(-497.927, -375.4495)" d="M 494.211 354.161 l 1.174 -1.366 H 482.552 L 469.8 367.5 h 12.94 Z m -8.4 13.336 H 510.05 l -6.589 -7.664 l -5.528 -6.429 l -8.354 9.713 Z m -15.856 2.329 l 24.1 25.356 L 482.53 369.826 Z m 40.824 0 h -2.1 l -8.829 0 H 485.083 l 12.774 28.1 l 0.082 0.178 l 12.17 -26.8 Z m -8.94 25.322 l 24.057 -25.32 H 513.337 Z m 24.215 -27.65 L 513.3 352.8 H 500.478 l 12.642 14.7 Z" stroke-linecap="round"/>
</g>
<g transform="matrix(0.2904 -0.4042 0.4042 0.2904 832.4468 603.1991)" id="886795">
<g style="" vector-effect="non-scaling-stroke">
		<g transform="matrix(13.6526 9.5596 -9.5596 13.6526 -301.7696 157.0925)" id="invisible_box">
<rect style="stroke: none; stroke-width: 1; stroke-dasharray: none; stroke-linecap: butt; stroke-dashoffset: 0; stroke-linejoin: miter; stroke-miterlimit: 4; is-custom-font: none; font-file-url: none; fill: none; fill-rule: nonzero; opacity: 1;" x="-24" y="-24" rx="0" ry="0" width="48" height="48"/>
</g>
		<g transform="matrix(13.6526 9.5596 -9.5596 13.6526 -177.9728 -19.7087)" id="Q3_icons">
<polygon style="stroke: none; stroke-width: 1; stroke-dasharray: none; stroke-linecap: butt; stroke-dashoffset: 0; stroke-linejoin: miter; stroke-miterlimit: 4; is-custom-font: none; font-file-url: none; fill: rgb(0,0,0); fill-rule: nonzero; opacity: 1;" points="6.7,5.05 1.3,-5.05 -1.3,-5.05 -6.7,5.05 6.7,5.05 "/>
</g>
		<g transform="matrix(13.6526 9.5596 -9.5596 13.6526 -361.5993 -148.2853)" id="Q3_icons">
<polygon style="stroke: none; stroke-width: 1; stroke-dasharray: none; stroke-linecap: butt; stroke-dashoffset: 0; stroke-linejoin: miter; stroke-miterlimit: 4; is-custom-font: none; font-file-url: none; fill: rgb(0,0,0); fill-rule: nonzero; opacity: 1;" points="7.55,-5.05 0.45,-5.05 -7.55,5.05 2.25,5.05 7.55,-5.05 "/>
</g>
		<g transform="matrix(13.6526 9.5596 -9.5596 13.6526 5.6539 108.8681)" id="Q3_icons">
<polygon style="stroke: none; stroke-width: 1; stroke-dasharray: none; stroke-linecap: butt; stroke-dashoffset: 0; stroke-linejoin: miter; stroke-miterlimit: 4; is-custom-font: none; font-file-url: none; fill: rgb(0,0,0); fill-rule: nonzero; opacity: 1;" points="7.55,5.05 -0.45,-5.05 -7.55,-5.05 -2.25,5.05 7.55,5.05 "/>
</g>
		<g transform="matrix(13.6526 9.5596 -9.5596 13.6526 -379.2026 267.6774)" id="Q3_icons">
<polygon style="stroke: none; stroke-width: 1; stroke-dasharray: none; stroke-linecap: butt; stroke-dashoffset: 0; stroke-linejoin: miter; stroke-miterlimit: 4; is-custom-font: none; font-file-url: none; fill: rgb(0,0,0); fill-rule: nonzero; opacity: 1;" points="-7.3,-11.9 0,11.9 7.3,-11.9 -7.3,-11.9 "/>
</g>
		<g transform="matrix(13.6526 9.5596 -9.5596 13.6526 -160.8207 352.4299)" id="Q3_icons">
<polygon style="stroke: none; stroke-width: 1; stroke-dasharray: none; stroke-linecap: butt; stroke-dashoffset: 0; stroke-linejoin: miter; stroke-miterlimit: 4; is-custom-font: none; font-file-url: none; fill: rgb(0,0,0); fill-rule: nonzero; opacity: 1;" points="-7.35,8.55 7.35,-8.55 -2.15,-8.55 -7.35,8.55 "/>
</g>
		<g transform="matrix(13.6526 9.5596 -9.5596 13.6526 -532.8523 91.9307)" id="Q3_icons">
<polygon style="stroke: none; stroke-width: 1; stroke-dasharray: none; stroke-linecap: butt; stroke-dashoffset: 0; stroke-linejoin: miter; stroke-miterlimit: 4; is-custom-font: none; font-file-url: none; fill: rgb(0,0,0); fill-rule: nonzero; opacity: 1;" points="-7.3,-8.55 7.3,8.55 2.1,-8.55 -7.3,-8.55 "/>
</g>
</g>
</g>
<g transform="matrix(0.0576 -0.3814 0.3814 0.0576 780.2652 -116.2002)" id="760378">
<g style="" vector-effect="non-scaling-stroke">
		<g transform="matrix(0 16.6667 -16.6667 0 -816.6673 0.0007)">
<path style="stroke: rgb(0,0,0); stroke-width: 4; stroke-dasharray: none; stroke-linecap: round; stroke-dashoffset: 0; stroke-linejoin: round; stroke-miterlimit: 4; is-custom-font: none; font-file-url: none; fill: none; fill-rule: nonzero; opacity: 1;" transform=" translate(-24, -25)" d="M 12 8 H 36 L 44 18 L 24 42 L 4 18 L 12 8 Z" stroke-linecap="round"/>
</g>
		<g transform="matrix(0 16.6667 -16.6667 0 -700.0001 0.0007)">
<path style="stroke: rgb(0,0,0); stroke-width: 4; stroke-dasharray: none; stroke-linecap: round; stroke-dashoffset: 0; stroke-linejoin: round; stroke-miterlimit: 4; is-custom-font: none; font-file-url: none; fill: none; fill-rule: nonzero; opacity: 1;" transform=" translate(-24, -18)" d="M 4 18 L 44 18" stroke-linecap="round"/>
</g>
		<g transform="matrix(0 16.6667 -16.6667 0 -900.0005 -66.6665)">
<path style="stroke: rgb(0,0,0); stroke-width: 4; stroke-dasharray: none; stroke-linecap: round; stroke-dashoffset: 0; stroke-linejoin: round; stroke-miterlimit: 4; is-custom-font: none; font-file-url: none; fill: none; fill-rule: nonzero; opacity: 1;" transform=" translate(-20, -30)" d="M 24 42 L 16 18" stroke-linecap="round"/>
</g>
		<g transform="matrix(0 16.6667 -16.6667 0 -900.0005 66.6669)">
<path style="stroke: rgb(0,0,0); stroke-width: 4; stroke-dasharray: none; stroke-linecap: round; stroke-dashoffset: 0; stroke-linejoin: round; stroke-miterlimit: 4; is-custom-font: none; font-file-url: none; fill: none; fill-rule: nonzero; opacity: 1;" transform=" translate(-28, -30)" d="M 24 42 L 32 18" stroke-linecap="round"/>
</g>
</g>
</g>
<g transform="matrix(19.0514 -19.7343 19.7343 19.0514 258.9196 659.428)" id="601102">
<path style="stroke: none; stroke-width: 1; stroke-dasharray: none; stroke-linecap: butt; stroke-dashoffset: 0; stroke-linejoin: miter; stroke-miterlimit: 4; is-custom-font: none; font-file-url: none; fill: rgb(68,68,68); fill-rule: nonzero; opacity: 1;" vector-effect="non-scaling-stroke" transform=" translate(-8, -8.5)" d="M 13 2 h -10 l -3 3.5 l 8 9.5 l 8 -9.5 z M 4.64 5 h -2.89 l 1.52 -1.78 z M 6.42 5 l 1.58 -1.84 l 1.58 1.84 h -3.16 z M 10 6 l -2 6.68 l -2 -6.68 h 4 z M 5.26 6 l 1.89 6.44 l -5.42 -6.44 h 3.53 z M 10.75 6 h 3.53 l -5.43 6.44 z M 11.37 5 l 1.37 -1.78 l 1.51 1.78 h -2.9 z M 12 3 l -1.44 1.81 l -1.46 -1.81 h 2.9 z M 5.43 4.83 l -1.43 -1.83 h 2.9 z" stroke-linecap="round"/>
</g>
</svg>