<svg xmlns="http://www.w3.org/2000/svg" xmlns:xlink="http://www.w3.org/1999/xlink" version="1.1" width="1000" height="1000" viewBox="0 0 1000 1000" xml:space="preserve">
<desc>Created with Fabric.js 3.5.0</desc>
<defs>
</defs>
<rect x="0" y="0" width="100%" height="100%" fill="#ffffff"/>
<g transform="matrix(8.4211 0 0 8.4211 500.0023 500.0024)" id="735260">
<path style="stroke: none; stroke-width: 1; stroke-dasharray: none; stroke-linecap: butt; stroke-dashoffset: 0; stroke-linejoin: miter; stroke-miterlimit: 4; is-custom-font: none; font-file-url: none; fill: rgb(0,0,0); fill-rule: evenodd; opacity: 1;" vector-effect="non-scaling-stroke" transform=" translate(-73.4765, -99.342)" d="M 31.463 103.922 L 50.287 79.666 L 101.38 80.473 L 120.204 103.116 L 75.295 150.12 L 31.463 103.922 Z M 53.46 85.713 L 39.567 103.67 L 69.288 135.496 L 58.373 106.748 L 48.45 105.518 L 48.697 102.258 L 58.262 101.496 L 62.907 85.673 L 53.46 85.713 Z M 86.038 85.576 L 68.875 85.648 L 64.325 101.206 L 89.766 101.182 L 86.038 85.576 Z M 89.306 107.19 L 64.693 107.182 L 75.742 139.192 L 89.306 107.19 Z M 54.121 69.969 L 54.845 53.093 L 62.868 54.357 L 57.828 70.61 L 54.121 69.969 Z M 36.402 50.939 L 44.671 48.564 L 49.329 70.367 L 45.55 72.155 L 36.402 50.939 Z M 39.932 76.989 L 26.749 70.228 L 31.503 63.594 L 41.63 73.877 L 39.932 76.989 Z" stroke-linecap="round"/>
</g>
</svg>